<svg xmlns="http://www.w3.org/2000/svg" viewBox="0 0 100 100" enable-background="new 0 0 100 100"><g fill="none" stroke-linejoin="round" stroke-linecap="round" stroke-width="2" stroke-miterlimit="10"><g stroke="#000"><path d="m16.3 87.2v-16.1c0-7 .4-7.4 7.4-7.4h51.9c7 0 7.4.4 7.4 7.4v16.1"/><path d="m33.2 45.5v-9.7c0-7 .4-7.4 7.4-7.4h18c7 0 7.4.4 7.4 7.4v9.7"/><path d="m24.8 62.6v-9.7c0-7 .4-7.4 7.4-7.4h35c7 0 7.4.4 7.4 7.4v9.7"/><path d="m11 87.2h76.8"/></g><g stroke="#ab124a"><path d="m19.7 74.5c0 0 5.1 7.4 11.7 0 0 0 5.2 7.8 11.2 0 0 0 5.8 8.1 13.2 0 0 0 5.3 8.8 12.2 0 0 0 5.1 8.1 11.3 0"/><path d="m31.5 54.1c0 0 5.1 7.4 11.7 0 0 0 5.2 7.8 11.2 0 0 0 5.8 8.1 13.2 0"/><path d="m37.6 36.2c0 0 5.1 7.4 11.7 0 0 0 5.2 7.8 11.2 0"/><path d="m45.8 22.7c0 0-12.7-4.6-10.8-10.4 1.9-5.8 7.8-2.5 7.8-2.5s2.5-4.4 6.8-3 3.6 10.3-3.8 15.9z"/><path d="m58.8 24c0 0 8.4-3 7.1-6.9-1.3-3.9-5.1-1.6-5.1-1.6s-1.7-2.9-4.5-2-2.4 6.7 2.5 10.5z"/></g></g></svg>